HIERARCHY
ROOT root
{
	OFFSET	0	13.1	24.9
	CHANNELS 6  Xposition Yposition Zposition Xrotation Yrotation Zrotation
	JOINT spine_1
	{
		OFFSET	0	9.99999	0
		CHANNELS 3  Xrotation Yrotation Zrotation
		JOINT spine_2
		{
			OFFSET	0	112	-10
			CHANNELS 3  Xrotation Yrotation Zrotation
			JOINT spine_3
			{
				OFFSET	0	206.5	19.3
				CHANNELS 3  Xrotation Yrotation Zrotation
				JOINT spine_4
				{
					OFFSET	0	110.4	14.6
					CHANNELS 3  Xrotation Yrotation Zrotation
					JOINT neck_1
					{
						OFFSET	0	71.8	-50.3
						CHANNELS 3  Xrotation Yrotation Zrotation
						JOINT neck_2
						{
							OFFSET	0	86.2	-25.8
							CHANNELS 3  Xrotation Yrotation Zrotation
							JOINT head_ee
							{
								OFFSET	0	179.8	-8.7
								CHANNELS 3  Xrotation Yrotation Zrotation
								End Site
								{
									OFFSET	1	0	0
								}
							}
						}
					}
					JOINT left_clavicle
					{
						OFFSET	-43.2	22.4	-70.8
						CHANNELS 3  Xrotation Yrotation Zrotation
						JOINT left_shoulder
						{
							OFFSET	-93.9	-5.79999	48.7
							CHANNELS 3  Xrotation Yrotation Zrotation
							JOINT left_elbow
							{
								OFFSET	-291.4	-30.8	15.2
								CHANNELS 3  Xrotation Yrotation Zrotation
								JOINT left_lowarm_twist
								{
									OFFSET	-110.7	-3.89999	13.6
									CHANNELS 3  Xrotation Yrotation Zrotation
									JOINT left_hand
									{
										OFFSET	-110.7	-3.89999	13.6
										CHANNELS 3  Xrotation Yrotation Zrotation
										JOINT left_ee
										{
											OFFSET	-80.8	-5.10001	12.1
											CHANNELS 3  Xrotation Yrotation Zrotation
											End Site
											{
												OFFSET	1	0	0
											}
										}
									}
								}
							}
						}
					}
					JOINT right_clavicle
					{
						OFFSET	43.2	22.4	-70.8
						CHANNELS 3  Xrotation Yrotation Zrotation
						JOINT right_shoulder
						{
							OFFSET	93.9	-5.79999	48.7
							CHANNELS 3  Xrotation Yrotation Zrotation
							JOINT right_elbow
							{
								OFFSET	291.4	-30.8	15.2
								CHANNELS 3  Xrotation Yrotation Zrotation
								JOINT right_lowarm_twist
								{
									OFFSET	110.7	-3.89999	13.6
									CHANNELS 3  Xrotation Yrotation Zrotation
									JOINT right_hand
									{
										OFFSET	110.7	-3.89999	13.6
										CHANNELS 3  Xrotation Yrotation Zrotation
										JOINT right_ee
										{
											OFFSET	80.8	-5.10001	12.1
											CHANNELS 3  Xrotation Yrotation Zrotation
											End Site
											{
												OFFSET	1	0	0
											}
										}
									}
								}
							}
						}
					}
				}
			}
		}
	}
	JOINT left_hip
	{
		OFFSET	-82.8	-127.5	0.300001
		CHANNELS 3  Xrotation Yrotation Zrotation
		JOINT left_knee
		{
			OFFSET	-28.2	-396.7	2.2
			CHANNELS 3  Xrotation Yrotation Zrotation
			JOINT left_ankle
			{
				OFFSET	-11.7	-411.3	35.4
				CHANNELS 3  Xrotation Yrotation Zrotation
				JOINT left_toes
				{
					OFFSET	0	-60	-88.6
					CHANNELS 3  Xrotation Yrotation Zrotation
					JOINT left_foot_ee
					{
						OFFSET	-22.5	-16.5	-42.2
						CHANNELS 3  Xrotation Yrotation Zrotation
						End Site
						{
							OFFSET	1	0	0
						}
					}
				}
			}
		}
	}
	JOINT right_hip
	{
		OFFSET	82.8	-127.5	0.300001
		CHANNELS 3  Xrotation Yrotation Zrotation
		JOINT right_knee
		{
			OFFSET	28.2	-396.7	2.2
			CHANNELS 3  Xrotation Yrotation Zrotation
			JOINT right_ankle
			{
				OFFSET	11.7	-411.3	35.4
				CHANNELS 3  Xrotation Yrotation Zrotation
				JOINT right_toes
				{
					OFFSET	0	-60	-88.6
					CHANNELS 3  Xrotation Yrotation Zrotation
					JOINT right_foot_ee
					{
						OFFSET	22.5	-16.5	-42.2
						CHANNELS 3  Xrotation Yrotation Zrotation
						End Site
						{
							OFFSET	1	0	0
						}
					}
				}
			}
		}
	}
}
MOTION
Frames: 13
Frame Time: 0.02
3101.31 734.681 -1133.05 1.20793 60.105 1.92506 0.893833 -0.135387 -0.220028 0.893852 -0.121112 -0.228198 0.894349 -0.0743167 -0.247425 0.894281 -0.11246 -0.232583 -19.1782 15.1661 3.22607 -20.2553 27.5367 9.47416 -0.0 0.0 -0.0 10.2003 21.2605 17.5557 -21.5268 -37.1076 37.0521 1.64229 -39.1268 0.583647 -9.75419 -0.443983 1.16385 -1.62855 1.93871 -10.0517 -0.0 0.0 -0.0 10.1732 22.2632 -19.6122 -19.8382 14.8094 -60.0892 0.9088 24.2366 -0.195137 31.0382 -0.0331004 3.91669 0.354347 -13.9597 -7.95954 0.0 0.0 0.0 -5.46381 25.091 5.10846 6.61566 -0.328385 -0.961179 21.2476 0.347872 -2.90369 -11.1215 0.0 0.0 -0.0 0.0 -0.0 23.7038 18.9556 -7.52685 -34.2269 0.140905 -5.17353 8.73185 -10.4847 1.2477 -38.704 0.0 0.0 0.0 0.0 0.0 
3090.12 732.867 -1133.35 1.49915 59.634 1.27809 0.962951 -0.100806 0.0178588 0.962945 -0.101738 0.0114081 0.962923 -0.102021 -0.00851627 0.962938 -0.102085 0.00770287 -20.2301 15.8377 3.66621 -21.5136 28.691 10.5203 -0.0 0.0 -0.0 10.0354 22.2796 17.113 -19.5342 -36.6861 36.7786 1.79564 -41.6495 0.683035 -11.1797 -0.525264 1.32709 -1.27167 3.75662 -6.83241 -0.0 0.0 -0.0 10.1504 22.6221 -19.53 -20.4255 13.9247 -61.1986 0.795182 21.4999 -0.150971 33.0768 0.0389493 4.16706 0.137624 -17.1679 -7.83299 0.0 0.0 0.0 -6.6625 24.4581 5.85689 6.68367 -0.332335 -0.970857 24.2708 1.14261 -3.26115 -13.1162 0.0 0.0 -0.0 0.0 -0.0 25.6091 18.5645 -7.67425 -33.4833 0.105037 -5.06508 12.4725 -10.798 1.7597 -40.1553 0.0 0.0 0.0 0.0 0.0 
3081.26 731.575 -1129.8 1.23105 58.1932 1.18272 1.06008 -0.0447075 -0.0944705 1.06008 -0.0386055 -0.0971239 1.06015 -0.0192341 -0.10273 1.06014 -0.035217 -0.0984032 -21.3268 15.0618 2.96071 -22.6264 27.6119 9.80877 -0.0 0.0 -0.0 9.99723 22.3294 17.0452 -18.0831 -37.3441 36.642 1.90079 -43.2726 0.75403 -11.7103 -0.556556 1.38734 -1.22292 3.81965 -6.48008 -0.0 0.0 -0.0 10.2211 23.3887 -19.6197 -21.2102 13.1738 -61.259 0.684855 18.7399 -0.11301 34.4054 0.0906846 4.32879 0.123431 -17.0528 -7.70166 0.0 0.0 0.0 -7.37835 28.8098 7.26211 7.26206 -0.366392 -1.05297 24.7799 1.1123 -3.32074 -14.8783 0.0 0.0 -0.0 0.0 -0.0 26.283 18.254 -6.97054 -31.2174 0.00448413 -4.73195 18.716 -5.69899 2.5712 -39.6829 0.0 0.0 0.0 0.0 0.0 
3068.77 731.774 -1130.54 1.28085 57.422 0.587137 1.18943 0.0229234 -0.0144242 1.18943 0.0237948 -0.0129363 1.18943 0.0258178 -0.0081839 1.18943 0.0242013 -0.0121586 -21.3231 15.8191 2.40821 -22.8266 29.3307 9.72969 -0.0 0.0 -0.0 9.85328 22.4602 16.801 -16.809 -37.4482 36.287 2.04378 -45.3486 0.853929 -12.1493 -0.582871 1.43697 -1.26866 5.55277 -6.00069 -0.0 0.0 -0.0 10.3528 23.2613 -19.9273 -21.8116 12.3936 -61.897 0.554108 15.3492 -0.0746686 34.8053 0.106994 4.37725 -0.185449 -19.9671 -6.94812 0.0 0.0 0.0 -8.98299 29.3774 8.46196 6.80873 -0.339628 -0.988638 25.4652 1.23217 -3.39932 -15.5586 0.0 0.0 -0.0 0.0 -0.0 28.0915 17.2319 -7.31644 -30.5709 -0.0217762 -4.63622 20.1136 -4.99903 2.74663 -39.1259 0.0 0.0 0.0 0.0 0.0 
3061.35 731.065 -1132.06 0.873327 57.0617 0.935121 1.31557 0.106885 -0.0405335 1.31556 0.109247 -0.03365 1.3155 0.113621 -0.012549 1.31551 0.110214 -0.0303359 -21.8835 16.0834 3.3094 -23.4441 29.4434 10.8565 -0.0 0.0 -0.0 9.54281 22.4424 16.3306 -15.939 -37.5838 36.0514 2.16105 -46.9447 0.938502 -12.6498 -0.613333 1.49331 -1.2317 6.13561 -5.49431 -0.0 0.0 -0.0 10.441 23.5537 -20.0987 -22.5682 11.6469 -62.4377 0.451306 12.6022 -0.0498338 35.7106 0.145159 4.48651 -0.483801 -22.4061 -6.14272 0.0 0.0 0.0 -10.8967 33.5127 10.4611 7.7332 -0.394747 -1.1196 25.8655 1.80656 -3.44219 -15.69 0.0 0.0 -0.0 0.0 -0.0 28.8505 16.3156 -8.12955 -25.5198 -0.189434 -3.87941 21.3413 -3.188 2.90198 -38.3238 0.0 0.0 0.0 0.0 0.0 
3052.75 731.62 -1131.9 0.975629 55.7771 0.691927 1.39274 0.293802 -0.0832779 1.39269 0.298506 -0.0644136 1.39235 0.30528 -0.00765552 1.39247 0.30024 -0.0557732 -22.291 16.4908 3.95095 -23.9461 29.9547 11.7919 -0.0 0.0 -0.0 9.41802 22.7436 16.0912 -14.9149 -37.8087 35.8614 2.26836 -48.3264 1.0178 -12.995 -0.63463 1.53201 -1.25015 6.92745 -5.25758 -0.0 0.0 -0.0 10.3857 23.2522 -20.0021 -22.9554 10.9814 -62.7481 0.378787 10.6276 -0.0352311 36.3554 0.173391 4.56395 -0.675259 -24.4574 -5.85992 0.0 0.0 0.0 -12.2417 34.0309 11.5147 6.59897 -0.327417 -0.958803 26.3746 1.59574 -3.50122 -16.118 0.0 0.0 -0.0 0.0 -0.0 29.8866 15.3441 -8.874 -22.9326 -0.249295 -3.48692 20.9858 -1.84502 2.86384 -38.2536 0.0 0.0 0.0 0.0 0.0 
3041.83 732.134 -1131.19 0.735731 55.5001 0.410055 1.44392 0.250847 0.0355393 1.44389 0.248077 0.0514293 1.44412 0.234234 0.0965474 1.44419 0.246542 0.0583426 -23.2096 16.6781 4.26253 -25.0035 30.2282 12.4853 -0.0 0.0 -0.0 9.18527 22.1863 15.8287 -13.1896 -37.3222 36.6788 2.38572 -49.7561 1.10643 -14.1736 -0.709096 1.66317 -1.57053 8.85362 -6.46136 -0.0 0.0 -0.0 10.3289 23.3507 -19.8653 -23.3594 10.481 -62.8034 0.335378 9.43294 -0.0276703 36.7774 0.192344 4.61447 -1.04718 -26.8976 -4.77708 0.0 0.0 0.0 -12.4821 34.6407 11.7707 6.00711 -0.293555 -0.874385 24.7006 0.511288 -3.31507 -16.9141 0.0 0.0 -0.0 0.0 -0.0 30.4161 15.2156 -8.12413 -18.3589 -0.31156 -2.78807 18.4916 0.456556 2.5651 -36.3185 0.0 0.0 0.0 0.0 0.0 
3040.57 735.652 -1134.78 -0.462208 54.8657 1.22045 1.47029 0.248807 0.114881 1.47027 0.240993 0.130481 1.47082 0.212693 0.172813 1.47086 0.237316 0.137054 -25.7438 16.7033 6.78226 -27.6223 29.3884 15.5799 -0.0 0.0 -0.0 9.53096 22.4627 16.3092 -10.3812 -35.2797 36.6104 2.47861 -50.8311 1.1779 -14.9799 -0.761594 1.75202 -2.08929 11.7537 -8.42265 -0.0 0.0 -0.0 10.494 23.1681 -20.2536 -23.431 10.1485 -62.9548 0.386183 10.8302 -0.0366079 38.3231 0.264926 4.79829 -1.15767 -28.7354 -4.94912 0.0 0.0 0.0 -11.7453 33.5869 11.3755 6.31926 -0.311305 -0.91895 20.163 -0.896245 -2.77784 -16.9865 0.0 0.0 -0.0 0.0 -0.0 31.0604 14.5013 -8.7189 -13.3175 -0.315389 -2.01482 10.432 1.57504 1.50085 -35.3926 0.0 0.0 0.0 0.0 0.0 
3034.91 738.396 -1134.69 -0.861082 54.9573 1.11951 1.09662 0.135109 0.237866 1.09665 0.119699 0.245981 1.09717 0.0704014 0.264344 1.09709 0.111266 0.249908 -25.1923 16.4975 8.13031 -26.7924 28.4088 16.4384 -0.0 0.0 -0.0 9.85501 21.6956 16.9383 -8.15216 -33.6439 36.3614 2.57641 -51.9116 1.2543 -15.2932 -0.782332 1.78634 -1.99539 14.2504 -6.60548 -0.0 0.0 -0.0 10.816 23.1912 -20.9778 -23.4609 9.34003 -62.2802 0.370377 10.3968 -0.0336968 41.0404 0.404482 5.11653 -0.982898 -27.0009 -5.17523 0.0 0.0 0.0 -12.4787 33.335 12.5624 7.65557 -0.390037 -1.10864 19.9612 -2.6648 -2.76602 -18.8903 0.0 0.0 -0.0 0.0 -0.0 31.7483 14.6438 -9.67782 -5.38323 -0.183913 -0.805394 1.27154 5.78914 0.191306 -33.4646 0.0 0.0 0.0 0.0 0.0 
3026.78 735.708 -1136.46 -0.601161 53.9822 1.13177 0.8893 0.0892171 0.132572 0.889306 0.0806004 0.13798 0.889505 0.0521512 0.151047 0.889482 0.0753518 0.140915 -23.8775 17.8726 9.32635 -25.534 30.4006 17.8749 -0.0 0.0 -0.0 9.98569 21.0182 17.2607 -6.45459 -32.7742 35.9357 2.7687 -53.8939 1.4077 -15.071 -0.767604 1.76201 -2.55757 16.9383 -8.75153 -0.0 0.0 -0.0 11.0249 23.5482 -21.4171 -23.8398 8.81222 -61.6868 0.350748 9.85695 -0.0302454 41.2052 0.413427 5.13561 -1.07263 -27.5409 -4.90751 0.0 0.0 0.0 -12.4991 34.0643 12.0798 6.76493 -0.337069 -0.982412 20.9939 -4.09798 -2.90764 -19.3463 0.0 0.0 -0.0 0.0 -0.0 32.6532 13.9078 -10.2019 -4.29423 -0.152834 -0.641159 -5.94689 7.34444 -0.916349 -33.3583 0.0 0.0 0.0 0.0 0.0 
3020.75 735.072 -1136.22 -0.871125 53.673 1.21519 0.707824 0.0452855 0.0920618 0.707828 0.0393356 0.0947569 0.707895 0.0197866 0.100671 0.707883 0.0354374 0.0962826 -24.423 18.1858 10.6056 -26.0824 30.5459 19.3796 -0.0 0.0 -0.0 10.056 20.7987 17.4103 -4.69785 -32.3581 36.2863 2.94783 -55.5854 1.55398 -14.9521 -0.759763 1.74896 -2.74484 19.2322 -8.68646 -0.0 0.0 -0.0 11.4242 23.7997 -22.2993 -23.9616 8.47046 -61.3035 0.33922 9.53905 -0.0283035 42.7479 0.499852 5.31302 -0.842486 -27.7746 -6.26526 0.0 0.0 0.0 -12.5311 34.3482 12.1341 6.06817 -0.297008 -0.88311 21.8186 -4.96273 -3.01841 -19.3537 0.0 0.0 -0.0 0.0 -0.0 32.7083 13.5106 -10.4752 -1.3466 -0.0530998 -0.199829 -10.5448 10.71 -1.66802 -32.5107 0.0 0.0 0.0 0.0 0.0 
3008.93 734.466 -1139.02 0.0853236 54.378 0.375864 0.397573 -0.0353943 0.175 0.397589 -0.0464582 0.172393 0.397451 -0.0805503 0.15934 0.39742 -0.0543746 0.170062 -23.0594 18.0105 9.33869 -24.632 30.5467 17.6674 -0.0 0.0 -0.0 9.83038 20.0572 17.1766 -3.7665 -32.023 36.6771 3.14447 -57.2879 1.71786 -15.0125 -0.763745 1.7556 -2.81765 20.5385 -8.42218 -0.0 0.0 -0.0 11.5254 23.0276 -22.6022 -24.3748 8.30452 -61.2273 0.294413 8.29789 -0.0213566 42.6773 0.495796 5.30497 -1.14486 -28.9657 -5.11552 0.0 0.0 0.0 -12.6208 33.4537 11.1069 5.83858 -0.284073 -0.850286 22.7942 -7.11809 -3.1644 -22.2038 0.0 0.0 -0.0 0.0 -0.0 33.4127 13.4994 -11.761 -0.518856 -0.0210167 -0.0768503 -15.8656 14.7637 -2.59506 -29.0597 0.0 0.0 0.0 0.0 0.0 
3000.42 734.217 -1140.29 0.108275 54.6945 0.622211 0.178949 -0.0564308 0.0800297 0.17895 -0.0614089 0.0762767 0.178867 -0.075876 0.0619034 0.178867 -0.0651472 0.0731097 -23.1981 18.108 9.89875 -24.7458 30.5103 18.2608 -0.0 0.0 -0.0 10.1811 20.0443 17.742 -2.60244 -31.3681 36.9502 3.40839 -59.3488 1.94248 -16.7217 -0.879259 1.94141 -3.31947 22.2558 -10.4486 -0.0 0.0 -0.0 11.821 23.5089 -23.2318 -24.91 7.3409 -61.2615 0.322209 9.06883 -0.0255532 43.93 0.569302 5.44738 -0.934398 -28.9917 -6.26018 0.0 0.0 0.0 -13.0582 33.5809 10.9066 5.92726 -0.289053 -0.86297 24.8517 -9.5248 -3.44975 -24.1638 0.0 0.0 -0.0 0.0 -0.0 33.72 13.3576 -12.4513 2.11926 0.0930539 0.311862 -17.8617 19.9911 -3.05906 -29.2952 0.0 0.0 0.0 0.0 0.0 
